<svg width="319.16" height="386.56" version="1.1" viewBox="0 0 84.445 102.28" xmlns="http://www.w3.org/2000/svg">
  <g transform="translate(-69.41 -19.23)">
    <circle cx="-56.896" cy="85.07" r="29.104" fill="#fff" stroke="#ccc" stroke-dasharray="5.29167, 1.32292" stroke-linecap="round" stroke-linejoin="round" stroke-width="1.3229"/>
    <path d="m110.75 25.554c0.37151 1.6123 0.61455 3.2006 0.74986 4.7551 1.2976 14.909-7.3146 26.717-7.5637 26.903 0.94189-11.032-3.327-16.612-7.7408-22.041-0.62201-0.76511-2.5008-2.6747-3.0481-3.722-0.89146-2.2797-0.47696-4.0382 0.17895-5.5865 1.3136-3.1009 8.9909-10.144 15.11-4.5218 0.86266 0.79254 1.7643 2.6599 2.3134 4.2135z" fill="#f00"/>
    <path d="m90.914 37.258c0.92756 0.99552 1.7537 2.0267 2.4893 3.0783 7.0544 10.084 5.7763 22.036 5.6753 22.27-3.8652-8.2439-9.2002-10.463-14.576-12.515-0.7576-0.28914-2.8809-0.8766-3.7013-1.3974-1.5723-1.2571-2.0001-2.6798-2.1696-4.0523-0.3395-2.7486 2.2323-10.921 8.9023-9.4336 0.94026 0.20973 2.3502 1.1689 3.3801 2.0496z" fill="#fc0"/>
    <path d="m74.772 56.142c1.1564-0.05652 2.2804-0.02753 3.3679 0.0715 10.429 0.94973 17.497 8.3416 17.595 8.5362-7.4817-2.0128-11.853 0.23745-16.138 2.6062-0.60389 0.33381-2.1515 1.3918-2.9405 1.6392-1.6804 0.33212-2.8403-0.17081-3.8257-0.81403-1.9734-1.2882-5.875-7.4469-1.2461-10.967 0.65254-0.49617 2.0502-0.88629 3.1882-1.0724z" fill="#008000"/>
    <path d="m79.625 75.846c0.59924-0.66082 1.2274-1.2574 1.8738-1.7959 6.1991-5.1643 14.077-4.9881 14.236-4.935-5.1726 2.9794-6.3283 6.587-7.3724 10.212-0.14714 0.51086-0.41389 1.9304-0.70892 2.495-0.73455 1.0964-1.6405 1.4544-2.5277 1.6407-1.7769 0.37328-7.2578-0.85637-6.6535-5.2958 0.08519-0.62582 0.63409-1.5998 1.1527-2.3211z" fill="#000080"/>
    <ellipse cx="111.63" cy="69.1" rx="11.727" ry="11.23"/>
    <g transform="rotate(180 149.52 77.728)">
      <path d="m186.53 40.271c0.37151 1.6123 0.61455 3.2006 0.74986 4.7551 1.2976 14.909-7.3146 26.717-7.5637 26.903 0.94189-11.032-3.327-16.612-7.7408-22.041-0.62201-0.76511-2.5008-2.6747-3.0481-3.722-0.89146-2.2797-0.47696-4.0382 0.17895-5.5865 1.3136-3.1009 8.9909-10.144 15.11-4.5218 0.86266 0.79254 1.7643 2.6599 2.3134 4.2135z" fill="#f00"/>
      <path d="m166.7 51.975c0.92756 0.99552 1.7537 2.0267 2.4893 3.0783 7.0544 10.084 5.7763 22.036 5.6753 22.27-3.8652-8.2439-9.2002-10.463-14.576-12.515-0.7576-0.28914-2.8809-0.8766-3.7013-1.3974-1.5723-1.2571-2.0001-2.6798-2.1696-4.0523-0.3395-2.7486 2.2323-10.921 8.9023-9.4336 0.94026 0.20973 2.3502 1.1689 3.3801 2.0496z" fill="#fc0"/>
      <path d="m150.55 70.859c1.1564-0.05652 2.2804-0.02753 3.3679 0.0715 10.429 0.94973 17.497 8.3416 17.595 8.5362-7.4817-2.0128-11.853 0.23745-16.138 2.6062-0.6039 0.33381-2.1515 1.3918-2.9405 1.6392-1.6804 0.33212-2.8403-0.17081-3.8256-0.81403-1.9734-1.2882-5.875-7.4469-1.2461-10.967 0.65254-0.49617 2.0502-0.88629 3.1882-1.0724z" fill="#008000"/>
      <path d="m155.41 90.563c0.59923-0.66082 1.2274-1.2574 1.8738-1.7959 6.1992-5.1643 14.077-4.9881 14.236-4.935-5.1726 2.9794-6.3283 6.587-7.3724 10.212-0.14714 0.51086-0.41389 1.9304-0.70892 2.495-0.73455 1.0964-1.6405 1.4544-2.5277 1.6407-1.7769 0.37328-7.2578-0.85637-6.6535-5.2958 0.0852-0.62582 0.63409-1.5998 1.1527-2.3211z" fill="#000080"/>
    </g>
  </g>
</svg>
